<svg id="Layer_5" enable-background="new 0 0 64 64" height="512" viewBox="0 0 64 64" width="512" xmlns="http://www.w3.org/2000/svg"><g><path d="m35 4.414-6.586 6.586h6.586z"/><path d="m54.534 29.51c-.048-.127-.098-.252-.153-.375l-.194-.433 1.081-2.162-1.809-1.809-2.162 1.081-.433-.194c-.125-.056-.251-.105-.379-.155l-.441-.169-.765-2.294h-2.559l-.765 2.294-.441.169c-.128.05-.255.1-.379.155l-.433.194-2.162-1.081-1.809 1.809 1.081 2.162-.194.433c-.055.123-.105.248-.153.375l-.168.445-2.297.766v2.559l2.298.766.168.445c.048.127.098.252.153.375l.194.433-1.081 2.162 1.809 1.809 2.162-1.081.433.194c.125.056.251.105.379.155l.441.169.765 2.293h2.559l.765-2.294.441-.169c.128-.05.255-.1.379-.155l.433-.194 2.162 1.081 1.809-1.809-1.081-2.162.194-.433c.055-.123.105-.248.153-.375l.168-.445 2.297-.766v-2.559l-2.298-.766zm-6.534 6.49c-2.209 0-4-1.791-4-4s1.791-4 4-4 4 1.791 4 4-1.791 4-4 4z"/><path d="m37 3v10h-10v14h-6v-18h-8v-6h-10v14h10v-6h6v18h8v2h-14v-6h-10v14h10v-6h14v2h-8v18h-6v-6h-10v14h10v-6h8v-18h6v24h34v-58zm-26 12h-6v-2h6zm0-4h-6v-2h6zm0-4h-6v-2h6zm0 30h-6v-2h6zm0-4h-6v-2h6zm0-4h-6v-2h6zm0 30h-6v-2h6zm0-4h-6v-2h6zm0-4h-6v-2h6zm29-45h18v6h-18zm-11 9h2v2h-2zm0 34h2v2h-2zm5 9h-4v-4h4zm8 0h-4v-4h4zm8 0h-4v-4h4zm8 0h-4v-4h4zm1-7h-26v-2h26zm0-4h-30v-2h30zm0-12.279-2.456.818 1.158 2.315-3.848 3.848-2.314-1.157-.819 2.455h-5.441l-.819-2.455-2.314 1.157-3.848-3.848 1.158-2.315-2.457-.818v-5.441l2.456-.818-1.158-2.315 3.848-3.848 2.314 1.157.819-2.456h5.441l.819 2.455 2.314-1.157 3.848 3.848-1.158 2.315 2.457.818zm0-17.721h-26v-2h26z"/></g></svg>