<svg id="Capa_1" enable-background="new 0 0 512 512" height="512" viewBox="0 0 512 512" width="512" xmlns="http://www.w3.org/2000/svg"><g><path d="m346.375 90.375c-33.321 0-64.369 9.9-90.375 26.899-26.006-17-57.054-26.899-90.375-26.899-91.326 0-165.625 74.299-165.625 165.625s74.299 165.625 165.625 165.625c33.321 0 64.369-9.9 90.375-26.899 26.006 17 57.054 26.899 90.375 26.899 91.326 0 165.625-74.299 165.625-165.625s-74.299-165.625-165.625-165.625zm-180.75 301.25c-74.784 0-135.625-60.841-135.625-135.625s60.841-135.625 135.625-135.625c23.713 0 46.019 6.124 65.433 16.863-31.007 30.116-50.308 72.225-50.308 118.762s19.301 88.646 50.308 118.762c-19.414 10.739-41.72 16.863-65.433 16.863zm112.778-210.875h-44.806c6.367-9.51 13.904-18.172 22.403-25.783 8.499 7.611 16.036 16.273 22.403 25.783zm-22.403 176.283c-8.499-7.61-16.036-16.272-22.403-25.783h44.806c-6.367 9.51-13.904 18.172-22.403 25.783zm37.478-55.783h-74.956c-3.42-9.633-5.779-19.763-6.938-30.25h88.833c-1.16 10.487-3.52 20.617-6.939 30.25zm-81.894-60.25c1.159-10.487 3.519-20.617 6.938-30.25h74.956c3.419 9.633 5.779 19.763 6.938 30.25zm134.791 150.625c-23.713 0-46.02-6.124-65.433-16.863 31.007-30.116 50.308-72.225 50.308-118.762s-19.301-88.646-50.308-118.762c19.414-10.739 41.72-16.863 65.433-16.863 74.784 0 135.625 60.841 135.625 135.625s-60.841 135.625-135.625 135.625z"/></g></svg>